<?xml version="1.0" standalone="no"?>
<!DOCTYPE svg PUBLIC "-//W3C//DTD SVG 20010904//EN"
 "http://www.w3.org/TR/2001/REC-SVG-20010904/DTD/svg10.dtd">
<svg version="1.0" xmlns="http://www.w3.org/2000/svg"
 width="180.000000pt" height="180.000000pt" viewBox="0 0 180.000000 180.000000"
 preserveAspectRatio="xMidYMid meet">
<metadata>
Created by potrace 1.11, written by Peter Selinger 2001-2013
</metadata>
<g transform="translate(0.000000,180.000000) scale(0.100000,-0.100000)"
fill="#000000" stroke="none">
<path d="M567 1489 c-72 -17 -131 -56 -182 -122 -31 -42 -26 -55 23 -58 12 -1
27 -3 32 -4 6 -1 22 -3 36 -4 27 -1 24 -21 -4 -21 -9 -1 -34 -9 -56 -19 -68
-33 -90 -21 -71 38 4 15 3 21 -3 17 -5 -3 -13 -18 -17 -33 -3 -15 -14 -32 -23
-39 -13 -9 -14 -15 -4 -26 9 -11 7 -24 -11 -59 -31 -63 -30 -149 3 -214 14
-28 27 -52 30 -55 3 -3 18 -30 33 -60 16 -30 45 -67 64 -82 38 -30 39 -29 -37
-48 -85 -22 -210 -114 -210 -155 0 -17 101 -50 183 -60 31 -4 57 -9 57 -11 0
-1 -4 -14 -10 -28 -8 -21 -6 -26 13 -32 37 -12 138 -12 191 1 62 14 92 30 120
62 l21 24 85 -23 c69 -19 109 -23 215 -22 254 2 380 53 535 217 l55 59 0 141
c0 137 -1 144 -28 190 -59 100 -142 160 -268 191 -77 19 -127 20 -229 5 -72
-10 -78 -9 -144 18 -60 25 -70 33 -81 65 -32 94 -202 172 -318 147z"/>
</g>
</svg>
